<svg xmlns="http://www.w3.org/2000/svg" width="26.862" height="26.191" viewBox="0 0 26.862 26.191">
  <path id="Icon_awesome-github" data-name="Icon awesome-github" d="M8.985,21.651c0,.108-.125.195-.282.195-.179.016-.3-.07-.3-.195,0-.108.125-.195.282-.195C8.844,21.44,8.985,21.527,8.985,21.651ZM7.3,21.408c-.038.108.07.233.233.265a.254.254,0,0,0,.336-.108c.032-.108-.07-.233-.233-.282A.278.278,0,0,0,7.3,21.408Zm2.394-.092c-.157.038-.265.141-.249.265.016.108.157.179.32.141s.265-.141.249-.249S9.851,21.3,9.694,21.316ZM13.258.563A12.986,12.986,0,0,0,0,13.777,13.578,13.578,0,0,0,9.18,26.731c.693.125.937-.3.937-.655,0-.336-.016-2.188-.016-3.325,0,0-3.791.812-4.587-1.614,0,0-.617-1.576-1.506-1.982,0,0-1.24-.85.087-.834a2.859,2.859,0,0,1,2.09,1.4,2.863,2.863,0,0,0,3.948,1.132A3.01,3.01,0,0,1,11,19.025c-3.027-.336-6.082-.774-6.082-5.984A4.1,4.1,0,0,1,6.2,9.85a5.117,5.117,0,0,1,.141-3.677c1.132-.352,3.737,1.462,3.737,1.462a12.794,12.794,0,0,1,6.8,0s2.6-1.82,3.737-1.462a5.114,5.114,0,0,1,.141,3.677,4.21,4.21,0,0,1,1.4,3.19c0,5.226-3.19,5.643-6.217,5.984a3.2,3.2,0,0,1,.921,2.513c0,1.825-.016,4.083-.016,4.528,0,.352.249.78.937.655a13.453,13.453,0,0,0,9.088-12.944A13.279,13.279,0,0,0,13.258.563ZM5.264,19.241c-.07.054-.054.179.038.282.087.087.211.125.282.054.07-.054.054-.179-.038-.282C5.459,19.209,5.335,19.171,5.264,19.241ZM4.679,18.8c-.038.07.016.157.125.211a.161.161,0,0,0,.233-.038c.038-.07-.016-.157-.125-.211C4.8,18.732,4.717,18.749,4.679,18.8Zm1.755,1.928c-.087.07-.054.233.07.336.125.125.282.141.352.054.07-.07.038-.233-.07-.336C6.667,20.66,6.5,20.644,6.434,20.731Zm-.617-.8c-.087.054-.087.195,0,.32s.233.179.3.125a.247.247,0,0,0,0-.336C6.044,19.918,5.9,19.864,5.817,19.935Z" transform="translate(0 -0.563)" fill="#707070"/>
</svg>
