<svg xmlns="http://www.w3.org/2000/svg" width="27.731" height="25.75" viewBox="0 0 27.731 25.75">
  <path id="Icon_awesome-gitlab" data-name="Icon awesome-gitlab" d="M5.7,1.643a.543.543,0,0,0-1.024,0L1.613,11.11H8.762C8.757,11.11,5.7,1.643,5.7,1.643ZM.048,15.875a1.081,1.081,0,0,0,.385,1.191l13.426,9.965L1.608,11.11ZM8.757,11.11l5.107,15.922L18.971,11.11Zm18.923,4.766-1.56-4.766L13.864,27.032l13.426-9.965a1.083,1.083,0,0,0,.39-1.191ZM23.054,1.643a.543.543,0,0,0-1.024,0L18.965,11.11h7.149Z" transform="translate(0.003 -1.281)" fill="#707070"/>
</svg>
