<?xml version="1.0" encoding="utf-8"?>
<!-- Generator: Adobe Illustrator 24.0.0, SVG Export Plug-In . SVG Version: 6.00 Build 0)  -->
<svg version="1.1" id="Component_9_1" xmlns="http://www.w3.org/2000/svg" xmlns:xlink="http://www.w3.org/1999/xlink" x="0px"
	 y="0px" viewBox="0 0 1085.6 1079.9" style="enable-background:new 0 0 1085.6 1079.9;" xml:space="preserve">
<style type="text/css">
	.st0{fill-rule:evenodd;clip-rule:evenodd;fill:#D9D9D9;}
	.st1{opacity:0.15;fill-rule:evenodd;clip-rule:evenodd;fill:#444D55;enable-background:new    ;}
	.st2{fill-rule:evenodd;clip-rule:evenodd;fill:#ECECEC;}
	.st3{fill:url(#Path_1_1_);}
	.st4{fill:#DBC0C5;}
	.st5{fill:#FEF9F0;}
	.st6{fill:#F9EED9;}
	.st7{fill:#94B5DF;}
	.st8{fill:#7F84C0;}
	.st9{fill:#F2F2F2;}
	.st10{fill-rule:evenodd;clip-rule:evenodd;fill:#AFB9C5;}
	.st11{fill:#C5CFD6;}
	.st12{fill:#AFB9C5;}
	.st13{fill-rule:evenodd;clip-rule:evenodd;fill:#DDE3E9;}
	.st14{fill-rule:evenodd;clip-rule:evenodd;fill:#C5CFD6;}
	.st15{opacity:0.2;fill-rule:evenodd;clip-rule:evenodd;fill:#C1DEE2;enable-background:new    ;}
	.st16{opacity:0.5;}
	.st17{fill-rule:evenodd;clip-rule:evenodd;fill:#69A1AC;}
	.st18{fill-rule:evenodd;clip-rule:evenodd;fill:#C1DEE2;}
	.st19{fill-rule:evenodd;clip-rule:evenodd;fill:#89C5CC;}
	.st20{fill-rule:evenodd;clip-rule:evenodd;fill:#915B3C;}
	.st21{fill-rule:evenodd;clip-rule:evenodd;fill:#191847;}
	.st22{fill-rule:evenodd;clip-rule:evenodd;fill:#B28B67;}
	.st23{fill-rule:evenodd;clip-rule:evenodd;fill:#2F3676;}
	.st24{fill-rule:evenodd;clip-rule:evenodd;fill:#E4E4E4;}
	.st25{fill-rule:evenodd;clip-rule:evenodd;fill:#5C63AB;}
	.st26{fill-rule:evenodd;clip-rule:evenodd;fill:#E87613;}
	.st27{fill-rule:evenodd;clip-rule:evenodd;fill:#FF9B21;}
	.st28{fill-rule:evenodd;clip-rule:evenodd;}
	.st29{fill:#FF9B21;}
	.st30{fill:#E87613;}
	.st31{fill:#FFFFFF;}
</style>
<g id="Component_10_1">
	<g id="layer1" transform="translate(-341.093 168.928)">
		<path id="path4254" class="st0" d="M1161.5,428.3c3.3-3.5,8.5-1.6,12.7-2.9c12.8-1.1,25.7-0.7,38.5-1.3c10.7-0.3,21.4-0.2,32-1.1
			c4.8-0.5,9.7-0.3,14.4,0.6c2.6,0.7,9.6,4.4,3.9,6.1c-3.3,2.1-7.2,2.2-10.9,2.1c-19.3,0.5-38.6,1.8-57.9,1.8l-29.5-0.9
			L1161.5,428.3z"/>
		<path id="path4165" class="st1" d="M1402.8-275l-12.4,63.1L1280-183.2l1.7-4.1l5-81.4l-8.6,78.6l-23.1,57l-28.3,25.1l-8.6-15.6
			l8.9-30.5l-9.3,29.7l-0.5-1l-2-82.6v79.1l-32.7-59.1l4.1-12.9l-4.3,12.6l-1.4-2.6l-8.9-50l7.1,49.6l2.6,4.8l-13,38.4l-49.2,28.7
			l0-0.1l0,0.1l-6.1,3.5l-2.1-27.4l-21.2-76.8l18.2,80.3l0.8,16.6l-5,9.4l-19.7,1.3l-24.1,10.5l2.9-25.8l39.9-16.7l-43.7,15.2
			l-3.7,27.6l-22.9-15.6l-5.4-26.1l1.1-4.1l-1.3,3.4l-22.3-108.2l20,114.6l-2.5,6.6l3,12.5l-9.4-2.9l-9.7-20.2l8.4,19.8l-47.2-14.5
			l-13.1-21l11.7,20.6l-13-4l-2.3-3.3l2.1,3.3l-8.4-2.6l-27.3-52.1l26.1,52.9l10.7,3.5l27.5,42.5l-50.3-6.7l-21-19.9l20.7,20.7
			l51.2,6.8l2.7,4.2l9.3,32l-37.8-4.5l-23-22.3l22.7,24.1l58,9.1l0,0l18.4,4.4l10.6,41.7l-12.6,8.8l-19.2-32.8L1030,2.2l-3.7,2.6
			l-26.2,98.3l-22.5-40.7l-14.8-4.7l7.6-48.9l14.3-11.4l1.4-33.6L982.3-3L967.7,7.3l-2.1,11.5L942.4,5.1L933-16.7l8.6,22.9
			l23.7,14.7l-6.6,35.6l-50.8-16.2l-4-15.1l23.9-41.2l0.3-1.1l45.3-13.9l5.7-9.8l-0.5-14.1l-0.1,13.8l-5.5,9.6l-44.6,13.2l6-26
			l-11.9-40.7l11.1,40.7L926-16.2l-22.8,38.9l-11.1-42.1l10.2,55.3l-32.7-19.9l-5.2-7.3l9.8-34.3l-2-27l0.9,27.3l-9.4,32.9
			l-7.4-10.4l-22.3-7.5L823-39.1l9.6,29.5L856.1,0l11.4,16.9L903,39.1l0.8,4.1l69.7,25.8l29.3,61.1l153.5,35l22.5,64.8l31.3,18.2
			l-0.4,14.8c0,0,21.2,145.5,21.2,155.6s-3,125.3-3,125.3l-11.6,20.2l30.5-1.2h68.6l-20-87.9l-3.8-56.9l-7.6-99.5l4.3-37.1
			l24.3-27.1l73.8-76.5l140.5-24.3l79.3-58.6l72.9-7.9l61.2-74.1l-62.6,67.7l-75,5l8.4-30.2l5.5-3.9l9.5-17l86.9-11l30-26.3
			l62.8-8.5l28-17.4l-28.5,16.3l-60.4,7.9l4.9-4.3l15.2-51l-17.9,50.3l-28.7,23.4l-8.8-38.4l17.1-25.5l12.4-12.9l2-30.2l-3.3,28.8
			l-7.1,7.9l-4.4-8.6l-9.2-10.7l-1.1-7.6l0.6,7.6l8.7,10.7l4.5,9.6l-4.5,5l-16.2,23.9l-1.4-6.3l-4-61.4l1.8,62.4l10.9,47.2l0.3-0.1
			l-6.4,5.2l-81.7,9.7L1646-1.5l-0.8-7.8l14.8-12.2l10.7-21.1l-3.2-31.8l1.5,32l-11.6,20.1l-12.5,9.7l-5.2-48.2l1.3,51.3l-2.4,1.9
			l-11.4,8.5l-12.3,3.7l-1.4-3.3l1.1-59.5l35.8-54.7L1612-60.6l-2.3,40.6l-32.1-47.1l-22.3-52.7l2.8-11.7l-3.4,10.4l-0.7-1.6
			l0.6,1.7l-31.4,97l-38.2-15.6l-1.8-5.4l3.9-13.8l1-16.4l44.9-41.5l10.7-39.6l-12.3,39.5l-28,24.8l-4.6-22l1.5-33.1l-2,32.3
			l3.5,23.2l0.1,0.8l-15.1,13.3l-24.6-14.3l-9.3-28.6l5.4-25.4l-7.9,25.7l5.8,21.7l-30-13.7l-2.1-1.8l8.8-30.5l-9.7,29.8l-22-18.8
			l-8.5-31.3l7.3,31.6L1423-113l-8.8,27l-4.1,6.4l-6-23.9l-16.7-29.6l16.1,30.5l5.7,24.4l-15.3,24.2l-36.3-15.5l-36.4-67.8l36.9-3
			l-37.7,1.5l-5.7-10.6l5.4,10.6l-60,2.4l17.8-42.1l113.7-32L1402.8-275L1402.8-275z M1182-186l33.3,62.4v1.9l-32.7,23.8l0.8-4.9
			l3.2-50.8l-2.6,24.6l-2.1,26.7l-6.3,28.5l-20.9,11l0.5-11.8l-1.1,12l-23,12.1l-13.2-8.9l-2-25.7l3.4-31.4l50.3-30.6L1182-186
			L1182-186z M954.4-139.1l13,4.2l44.1,77.3l-14.8-1.8l-10.3-32.6L954.4-139.1L954.4-139.1z M1320.9-137.1l35,68.8l-13-4l0-3.2
			l-0.1,3.1l-6.9-2.1l-1-0.6l-3.1-20.1l1.4,19l-26.3-16.9l26.3,17.5l1.2,15.4l-23.4,17.4l-9.9-11.8l-1.7-43.4v43.6l10.1,12.8l-5.4,4
			l-37,18.6l-25.5,24.9l-7.5-37.8l3.7-2.2l1.5-19.7l11.9-3l9.3-6.8l5.1-20.5l-7.4,20.6l-8,4.8l-10.7,1.8l-3.5-13l2.7-18.2l-7.4-8.5
			l6.9,8.8l-3.6,19l3,12.2l-0.1,0l-2.5,21.1l-1.2,0.7l-12.1-61.4l39.4-36.1L1320.9-137.1L1320.9-137.1z M1025.3-135.2l3.1,17.6
			l-0.8-0.2l-3.4-13.3L1025.3-135.2z M968.8-134.4l47.1,15.3l1.8,4.3l11.4,11.5l1.1,4.4l-28.1-10L977.4-126l24.2,18.4l29,10.3
			l2.2,9.1l-0.5,33.7l-0.3-0.1l-7-24.1l6.1,23.9l-14.6-3.1L968.8-134.4L968.8-134.4z M1109.2-122.4l2.9,59.1l0,0.1l-52.2-35.4
			l0.1-0.5l26.6-11.7l18.6-1.8L1109.2-122.4L1109.2-122.4z M1215.3-121.2v1.1l3.3,19.4l-11.9,10.6l-27.6,14.5l3.3-21.4L1215.3-121.2
			L1215.3-121.2z M1217.4-119.7l7.2,13.5l0.4-0.1l-4.6,4.1l-3-15L1217.4-119.7L1217.4-119.7z M1555.3-119.6l19.8,52.2l34.4,51.7
			l-1,17.4l1.8,4.1l-11.5,3.4L1587,5.9l-20,22l-47.8-0.3l3.6-15.6l-4.8,15.6l-34.4-0.2l43.2-29l0.2-0.8l24.2-3.5l29.8-23.7
			l-30.8,20.7l-22.3,2.7L1555.3-119.6L1555.3-119.6z M1017.5-118.6l8.7,2.8l2.2,9.3l-9.7-9.5L1017.5-118.6z M1119.2-116.4l-3.6,27.2
			l-1.8-23.9L1119.2-116.4L1119.2-116.4z M1028.3-115.1l0.6,0.2l0,0.1l25.9,20.5l-1.6,12.2l-22-21.7L1028.3-115.1L1028.3-115.1z
			 M1424-112.2l1.6,1.4l31.4,14.8l1.9,7.1l23.8,15.3l-0.3,10.9l-5.3,18.4l2,8.3l42,18.7l-4.1,12.7l-61.9,7.6L1437,18.9l-16.9,1.8
			l0.5-21l9.6-14.9l-3-8.6l5.8-34.6l-9.5,24l-2.8-8.1l-24-10.2l19.8-33.2L1424-112.2L1424-112.2z M1032-100.3l20.8,21.1l-0.7,5
			l2.3,24.5l-19.1-4.1l-0.3-34.9L1032-100.3L1032-100.3z M1219.7-94.4l10.5,61.7l-35,19.9l9.5-45.8l-15.7,54.3l-32.1,14.9l-4.4-24.4
			l1.9-40.8l56.1-31.1L1219.7-94.4L1219.7-94.4z M1059.1-91l51.4,40.5l-3.3,25l-11.2,52.8L1081.7,4l-0.2-1.4l17.3-31.7l-17.6,29.8
			l-7.8-46.5l-13.2-2.8l-3-26L1059.1-91L1059.1-91z M1335.1-74.4l0.2,0.1l7.6,2.6l-0.5,24.9L1331.8-18l-17.7-21.1l23.3-20.2
			L1335.1-74.4L1335.1-74.4z M1343-71.6l13.8,4.8l59.5,27.7l4.3,12.2l-1.8,4.5l-64.3,45.7l-1.4-6.3l11.8-44.6l-13.2,43.9l1.4,7.9
			l-14.9,10.6l-1.4-46.8l-3.8-4.5l10.1-30.5L1343-71.6L1343-71.6z M1153.4-54.2l-3.5,39.3l3.4,27.1l-5.4,2.5l-11.1-30.5l-1-28.6
			L1153.4-54.2L1153.4-54.2z M1112-49.2l13.3,10.5l-1.4,27.9l13.4,30.5l-22,10.3l-0.7,20l-3.3,2.6l-12.7-20.8l10.6-54.7L1112-49.2
			L1112-49.2z M1033.8-48.4l31.5,7.6l7.9,47.1l2.1,4.4l-8.3,14.1l-1.9,18.8l-19.9-17.1L1031.9,4l13.8-11.3L1033.8-48.4L1033.8-48.4z
			 M1312.6-37.8l21.3,27l0.7,53.2l-13.2,42.8l-22.4,13l-6.6-17l-13.4-62.6l10,64.3l6.5,17.4l-41.2,23.8l-22.5,26.6l-4-7.5l9.2-21.4
			l-1.5-46.4l9.3-62.5l26.4-27.1l39.3-21.4L1312.6-37.8L1312.6-37.8z M1230.7-29.8l6.8,39.9l-0.2,0.2l-10.7,50.3l-19.8-30.8
			L1159,18.2l33.5-18.4l1.7-8.1L1230.7-29.8L1230.7-29.8z M1423.3-19.2l1.5,4.3l-9.6,12.6l-1.7,23.7l-48.8,5.2L1423.3-19.2
			L1423.3-19.2z M1641-5.9L1641-5.9l-24.4,40.1l4.4-15.8L1616.5,8l12.4-3.9L1641-5.9L1641-5.9z M1509.3,0.2l-37.2,22.3l-7.2-8.6
			l6.6,9L1419.3,54L1420,26l20-2l19.2-16.7L1509.3,0.2L1509.3,0.2z M1031.3,4.5l12.9,23.1l20.5,18.5l-1.8,17.8l-50.1,7.2L1028.2,7
			C1028.2,7,1031.3,4.5,1031.3,4.5z M1612,9.4l3.3,7.6l-9.5,31.6l-73,38.1l2.2,6.3l53.5-28.3l3.8-2.3l3.5-2.5h6.6l-7.9,26.2l-0.6,0
			l-71.2,54.5l-13.6,2.4l18.6-25.4l7.4-23.4l-2.4-7.7l-18.2-9.6l-5-7.5l7.9-34.6l53.1-1.5l18.6-22.1l11.1,1.8L1612,9.4L1612,9.4z
			 M1076.1,12.4l16,32.8l-3.6,17.1l0.4,1.8L1067,45.3l2-19.8L1076.1,12.4L1076.1,12.4z M1413.2,26.6l-2.3,32.5l-1.3,0.8l1.4,70
			l-77.3,72.4l3.7-15.4l-4.5-31.8l-15.7-19.6l34.8-54.3l6.3-40.5l-1.7-7.6l1.2-0.9L1413.2,26.6z M1141,28.1l1.4,3.2l55.7,15
			l17.1,30.7l-1.2,39.3l-12.3,26.4l10.6,31.4l-1.7,54.8l-15.2-8.5l-36.9-96l-26.3-34.8L1115.3,79l-1-8.1l10.6-13.1l1.2-21.5
			L1141,28.1L1141,28.1z M1355,34.3l1.1,5.9l-5.7,39.3l-35.2,53.3l-5.4-6.8l-6.6-16.9l28.8-17.9l16.2-51.5L1355,34.3L1355,34.3z
			 M1515.7,35l-8.4,27.2l-20.6-17.7l-4.1-8.6L1515.7,35L1515.7,35z M1480.9,35.9l3.7,8.9l22.1,19.3l-1.8,5.7l3.6,9.6l20.4,12.1
			l-9.5,24l-24,29.9l-94.5,16.9l28.8-29.8l-2.9-67.1l43.7-29.4L1480.9,35.9L1480.9,35.9z M1066.8,47.9l23,20.8l14.9,73.6l-93.3-18.8
			l-7.8-14.1l8.4-35.2l52.9-7.8L1066.8,47.9L1066.8,47.9z M1094.9,50.9l5.4,11.1V87l18.6,10.7l25.7,33.6l7.1,20.6l-41.1-8.3
			l-17.8-81.9L1094.9,50.9L1094.9,50.9z M1299.5,111.4l5.8,15.6l22.1,29.3l4.3,29.3l-7.1,25l0.7-0.4l-60.7,56.8l-0.2,1.6l-8.8-14.3
			l-19.8-11.1l2.1-73.4l32.4-40.2L1299.5,111.4L1299.5,111.4z M1235.3,262.8l12.1,7.1l13.7,30.7l-3,29.3l2.9,70L1235.3,262.8
			L1235.3,262.8z"/>
		<path id="path4320" class="st2" d="M1209.9,244.5c1.7,2.7,4.2,5,4.5,8.3c1.3,4.9,2.6,9.8,4.1,14.6l-2.1,3.4
			c-3.7-0.5-0.8,5.1-1.6,7.3c0,8,0.8,15.9,1.5,23.8c-0.1,1.9,0.9,6.6-2.1,4.7c2.2-3.3-0.1-7.3-0.3-10.9c-1.6-4-2.6-7.9-1.7-12.2
			c-1.2-3.8-3.8-7.7-4.2-11.5l1.9-3.6c-1.6-4-3.9-7.8-4.4-12.2l-1-5.6c3.1-2.1,2.9,4.2,4.5,5.9c1.2,3.3,0.2-2.9,0.3-4.2
			c0-2.4-0.5-5.1-0.2-7.4L1209.9,244.5L1209.9,244.5z"/>
		<path id="path4322" class="st2" d="M1264,82.1c-1.6,4.4-2.9,8.9-4.8,13.1l-10.6,10.9c-3.2,1.2-7,1.5-9.4,4.4c-3.3,3-6.7,6-9.9,9.2
			c-1.8,4.1-4.4,8-4.6,12.6c-0.6,3.9-0.9,7.8-0.9,11.7c-3.7,0.5-2.4-4.6-3.7-6.7c-1.5-2.4-3.1-5.3-6.1-6c-3.4-0.4-5.8-2.8-8.2-4.9
			c-3-1.4-1.7-4.4,1.3-3.3c2,0.6,2.7,2.8,4,4.3c0.7,1.7,2.5,2.5,4.1,1.1c2.1-2,3.2-4.7,5.5-6.5c7.9-6.8,15.8-13.7,23.5-20.7
			c0-3.7,4.7-4.3,6.1-7.3c3.1-3.6,6.5-6.8,10.2-9.8C1261.7,83.4,1262.8,82.7,1264,82.1L1264,82.1z"/>
		<path id="path4324" class="st2" d="M1218.8,174.1c-0.7,2.1-1.2,4.2-1.6,6.4c-1.8,1.4,0.6,3.9,0.4,5.8c0.7,2.6-0.9,5.4,0.4,7.8
			c1.5-1.1,0.8-3.9,0.8-5.6c-0.4-2.1-0.4-4.6,1.5-6.1c0.1-1.7-2.7-3-0.7-4.8C1219.8,176.8,1220.2,174.1,1218.8,174.1L1218.8,174.1z"
			/>
		<path id="path4326" class="st2" d="M1220,165.3c-1,1.9-0.7,3.1,0,4.8c1.1-0.9,1.3-2,2-3.2c-0.1-0.6-1.2-0.6-1.3-1.2L1220,165.3z"
			/>
		<path id="path4328" class="st2" d="M1194,1.3l-8.4,9.9c0.5,1,0.1,2.2-0.9,2.7c-0.2,0.1-0.4,0.2-0.7,0.2c-1.2,0.6-2.8,1-2.3,2.7
			c0,2.3,0,4.6,0,6.9c-1.6-1.3-1.3-3.7-1.5-5.5c-0.2-3.3-3.1-5.5-3.7-8.7c1.9,0.6,2.9,2.4,4,3.8c0.8-1.9,2.8-3.1,3.1-5.1
			c0.7-2,2.6-3.1,4-4.5c1.3-1.2,2.5-2.7,4.1-3.5c2.8-0.9,4.5-3.5,6.6-5.4c1.1-0.9,0.9-3.5,2.2-3.7c0.7,1.1-0.6,2.5-1,3.6
			c-0.8,2.7-3.4,4.3-5.2,6.3C1194.4,1.1,1194.2,1.2,1194,1.3L1194,1.3z"/>
		<path id="path4330" class="st2" d="M1271.1-50.3c-5.4,2.6-10.7,5.3-15.9,8.4c-3.2,1.9-6.6,3.6-9.6,5.7c-2.3,3-6.3,3.8-9,6.3
			c-2.4,1.5-4.6,4-7.3,4.6l-3.3-0.2c1.6-3,4.2-5.5,7.3-7c2.8-0.7,5.5-1.7,7.9-3.2c3-1.2,4.6-4.1,6.8-6.3c2.4-2.2,5.2-4.1,7.8-6.2
			c2.3-0.7,3.7,2,5.9,0c2.6-0.5,5.1-3.1,7.8-2.4C1269.9-50.5,1271.9-49.4,1271.1-50.3L1271.1-50.3z"/>
		<path id="path4332" class="st2" d="M1168.4-85.5c-0.5,2.3-1.6,4.5-1.1,6.9c0.3,3.7,1,7.3,1.5,11l4.8,6.7c0.5-2.2,2.2-3.3,3.5-4.9
			c0.8-0.8,1.4-1.6,0.6-2.6c-0.9-1.9-1.3-3.7,0.6-5.1c1.2-2.4,1-5.3,1.6-8c0.4-3.5,1.1-7,2.2-10.4c0.6-1.3,0.7-2.7,0.4-4.1l-0.7-4.3
			c-2.6,1.4-2.5,4.3-3.2,6.8c-0.9,3.9-1.9,7.9-2.6,11.9c-2.4,2-4-1-5.8-2.4L1168.4-85.5L1168.4-85.5z"/>
		<path id="path4334" class="st2" d="M1057.1-88.5c0.8,1.6,2.4,2.9,2.6,4.7c-0.8,1.3-1.2,2.8-1.3,4.3c-0.2,1.7-0.2,3.3,0,5
			c1.4,0.1,0.6-1.9,1-2.8c0.4-1.2,0.5-2.9,2.1-3c1.5-0.1,1.8-1.3,1.9-2.5c1.3-0.7,2.2-1.7,1.9-3.3c0.1-2.3,0.1-4.5,0-6.8
			c-0.2-1-2.3-2.5-1.7-0.5c0.2,1.7,0,3.4-0.3,5c-0.1,1.5-1.6,2.2-2.6,3.1c-0.9-0.3-0.8-2.3-2.2-2.5C1058-88,1057.5-88.2,1057.1-88.5
			L1057.1-88.5z"/>
		<path id="path4336" class="st2" d="M1144.9,82.5c-0.9-2.8-1.7-5.7-2.6-8.5l-7.9-17.6c-2.1,8.8,0.8,12.2,4.3,20l3,10.5
			c4.2,1.7,8.4,3.5,12.7,5.2l3.8,1C1156.3,87.4,1149.5,85,1144.9,82.5L1144.9,82.5z"/>
		<path id="path4376" class="st2" d="M1599.4,280.3l-1.6,1.2l1.5,1.5c0.1,0.6,0.3,1.2,0.6,1.7c0.7,1.1,1.4,2.2,2.2,3.2
			c0.2,0.3,0.6,0.9,0.8,0.9c0-0.4,0.2-0.8,0-1.1l-1.6-2.3l-0.1-2.4L1599.4,280.3L1599.4,280.3z"/>
		<path id="path4252" class="st2" d="M1259.7,396.7c-2.7,1.6-6.3,3-6,6.9c-0.8,3.6-0.5,7.6-3.6,10.2c-1.6,3-4.7,4.4-7.9,4.8
			c-2.4,1.2-4.5,0.1-6.5-1.4c-2.5-1.7-5.2-3.3-8.2-3.3l-6.7-0.7c-1.8,1.7-3.1,4.8-6,4.5l-13.9,1.3l-7.8,8.7
			c14.8,0.5,29.6,1.4,44.4,1.5l29.4-1.9c-0.4-5.4-1.5-10.7-3.1-15.9L1259.7,396.7L1259.7,396.7z"/>
	</g>
	<g id="Component_4_1" transform="translate(0 79.342)">
		
			<linearGradient id="Path_1_1_" gradientUnits="userSpaceOnUse" x1="-551.9333" y1="-313.8733" x2="-552.1823" y2="-313.6433" gradientTransform="matrix(1553.5818 0 0 -1363.7034 857973.25 -427664.3438)">
			<stop  offset="0" style="stop-color:#C7ACFC;stop-opacity:2.000000e-02"/>
			<stop  offset="0.799" style="stop-color:#AB98F7;stop-opacity:0.212"/>
			<stop  offset="1" style="stop-color:#866AD2;stop-opacity:0.161"/>
		</linearGradient>
		<path id="Path_1" class="st3" d="M182.1,1055.5C45.3,784.1-125,262,136.8,159.2S446.8-127.5,579.7-104s62,47.8,220.9,54.1
			s262.3-122.6,462.2,19.8s176.7,272.8,220.5,559S1637.8,936,1438,1115s-440,144.7-754,129.8S318.9,1326.9,182.1,1055.5z"/>
	</g>
	<g id="Component_5_1" transform="translate(42.546 882.453)">
		<path id="Path_12" class="st4" d="M1044.1-106.1v14.5L3.9-92.6L0-106.1H1044.1z"/>
	</g>
	<g id="Component_6_1" transform="translate(328.436 219.814)">
		<path id="Path_13" class="st4" d="M0-91.4l16.7-14.7l-0.5,665.4h-16L0-91.4z"/>
	</g>
	<g id="Component_8_1" transform="translate(350.736 199.001)">
		<path id="Path_14" class="st4" d="M734.9-106.1v15.3L0-90.3l18.1-15.6L734.9-106.1z"/>
	</g>
	<g id="Component_7_1" transform="translate(682.633 121)">
		<rect id="Rectangle_4" x="0" y="-106.1" class="st4" width="16" height="762"/>
	</g>
	<path id="Path_15" class="st5" d="M46.3,790.1l1039.8,0.5l-0.2,289.4l-929.2-0.2c0,0-16.5-28.3-44.1-100.7
		c-9.7-25.4-15.7-38.5-32.2-85.8S46.3,790.1,46.3,790.1z"/>
	<path id="Path_16" class="st6" d="M369.7,93.1h4.8l711.1-0.2V0L985.5-0.2L920.6,0h-24.8l-34.4-0.2c0,0-25.6,0.9-54.1,0
		s-55.7,0-55.7,0S730.9-0.1,720.7,0s-9.8,0-9.8,0l-40.7-0.2L479.1,0l-19.9,14l-25.9,21.5l-29.5,26.6L369.7,93.1z"/>
	<path id="Rectangle_7" class="st7" d="M392.1,591.9h325c5.8,0,10.5,4.7,10.5,10.5l0,0c0,5.8-4.7,10.5-10.5,10.5h-325
		c-5.8,0-10.5-4.7-10.5-10.5l0,0C381.6,596.6,386.3,591.9,392.1,591.9z"/>
	<ellipse id="Ellipse_1" class="st7" cx="554.6" cy="911.9" rx="66" ry="16"/>
	<rect id="Rectangle_8" x="547.6" y="612.9" class="st8" width="14" height="299"/>
	<g id="Symbols" transform="translate(626.633 135.375)">
		<g id="Scene_Home">
			<g id="Clock">
				<circle id="Clock-Frame" class="st9" cx="64.5" cy="-42" r="64.5"/>
				<circle id="Time" cx="64.5" cy="-93" r="3.5"/>
				<circle id="Time-2" cx="13.5" cy="-42" r="3.5"/>
				<circle id="Time-3" cx="115.5" cy="-42" r="3.5"/>
				<circle id="Time-4" cx="64.5" cy="9" r="3.5"/>
				<path id="Hand" class="st10" d="M64.3-85.5L66.7-43h-4.9L64.3-85.5z"/>
				<path id="Hand-2" class="st10" d="M85.8-20.3L63.5-39.2l3.4-3.4L85.8-20.3z"/>
				<circle id="Time-5" class="st11" cx="64" cy="-41.5" r="5"/>
			</g>
		</g>
	</g>
	<g id="Lamp" transform="translate(416.633 546)">
		<path id="Lamp-Base" class="st12" d="M23,37.9h34c1.1,0,2,0.9,2,2v5c0,1.1-0.9,2-2,2H23c-1.1,0-2-0.9-2-2v-5
			C21,38.8,21.9,37.9,23,37.9z"/>
		<path id="Lamp-Body" class="st13" d="M31,8.9c4.4-14.3,6.8-29.1,7.2-44h4.6c0.4,14.9,2.9,29.7,7.2,44h6.5
			c8.6,0,15.5,6.9,15.5,15.5s-6.9,15.5-15.5,15.5h-33C14.9,39.9,8,33,8,24.4S14.9,8.9,23.5,8.9H31z"/>
		<path id="Shade" class="st14" d="M4.6-104.4c11.5-1.1,22.9-1.7,34.4-1.7s22.9,0.6,34.4,1.7L78-24.9c-13,1.2-26,1.9-39,1.9
			s-26-0.6-39-1.9L4.6-104.4z"/>
	</g>
	<g id="Symbols-2" transform="translate(42.633 419.596)">
		<g id="Scene_Plants" transform="translate(-22 -28)">
			<path id="Leaf-Top" class="st15" d="M232.2-66.6c3.5-1.7,8.2,0.3,6.2,4.9c-2.1,4.9-9.8,5-14.2,4.9c0.4,0,1.8-4.5,2.3-5.2
				C228.1-64,230-65.6,232.2-66.6z M191.8,23.2C190.5,24.2,191.7,23.3,191.8,23.2L191.8,23.2z M236.3-43.7c1.9,1.4,2.2,4,0.9,5.9
				c-0.1,0.2-0.2,0.3-0.4,0.4c-2,2.3-5.8,2.2-8.6,2c-1.3-0.1-8-0.6-6.4-1.7c-0.2,0.1-0.4,0.2-0.7,0.3c-0.1,0.5-0.3,1.1-0.5,1.6
				c0,0,0.1,0,0.1,0.1c0,0-0.1,0-0.1-0.1c-1.6,5.3-4,10.4-6.9,15c1.1-0.4,2.3-0.8,3.5-0.9c3.5-0.4,10.9,2.3,7,6.9
				c-3.8,4.4-9.6-0.3-13.9-1c-4.2,5.7-8.7,11.3-13.5,16.5c0.3,0.1,0.6,0.3,0.7,0.6c1.9-1,3.9-2.3,5.7-2.7c2.6-0.5,7.8-0.9,9.8,1.4
				c2.4,2.8-0.2,5.1-3,5.6c-4.1,0.8-9.4-1.2-13.4-2.5c-0.5,0.1-0.9-0.1-1.2-0.4l-0.3-0.1c-4.9,5.3-9.9,10.4-14.9,15.4l0.2,0
				c1.3-0.9,2.7-1.5,4.2-1.9c3.5-0.8,7.6-0.9,10.5,1.7c2.8,2.5,3.8,6.9,0.9,9.7c-5.9,5.6-14.5-7.2-17.5-7.7
				c-5.1,5-10.5,9.7-15.9,14.3c0.6-0.2,1.3-0.3,1.9-0.4c5.4-0.5,17.9,6,11.3,12.4c-5.7,5.6-12.4-5.1-17-8.9
				c-5.1,4.3-10.3,8.5-15.4,13c2.7-0.8,5.6-0.8,8.3,0c3,0.9,7.9,3.2,6,7.2c-2,4.1-7.9,2.3-10.9,0.9c-1.7-0.7-5-3.1-8-4.1
				c-8.1,7.3-14.9,16-20.2,25.5c-3.3,6.1-5.8,12.6-7.5,19.2c-1.1,4.3-3.3,11.4-2.9,17c-2.1-11.1,1.7-24.4,5.8-34.3
				c3.9-9,9.3-17.2,16-24.3c-1.7-4.9-15.6-12.1-7.3-16.7c4.4-2.4,9,1.6,9.9,5.9c0.7,2.9-0.4,6.6-1.4,9.5c2.1-2.2,4.2-4.3,6.5-6.4
				c3.1-2.8,6.2-5.6,9.4-8.3c-5.2-4.9-10.2-18.8-3.2-21.1c10.4-3.4,5.4,15.7,4.6,19.2c-0.2,0-0.4,0-0.5-0.2c0.1,0.3,0.1,0.7,0.2,1
				c6.1-5.2,12.3-10.3,18.3-15.6c-0.7-0.9-1.4-1.8-2.1-2.7c-1.6-1.8-2.9-3.7-4-5.8c-1.7-3.3-3.3-8.7,1.2-10.6
				c4.8-2.1,7.1,3.9,7.2,7.5c0,2.5-0.7,4.8-1,7.3c-0.1,0.8,0.3,4.2-0.7,2.7c0,0.4,0.1,0.8,0,1.2c1.1-1,2.1-1.9,3.2-2.9
				c-0.1-0.1-0.1-0.3-0.1-0.4c0-0.7,0.5-1.3,1.2-1.3c0.2,0,0.4,0,0.6,0.1c1.4-1.3,2.8-2.6,4.1-4c2.9-2.9,5.8-5.8,8.7-8.9
				c-0.6-0.5-0.4-1.3-1-1.8s-1.7-0.9-2.4-1.4c-1.7-1.4-3.2-3.2-4.2-5.2c-1.7-3.1-3.9-9.7,1.1-11.2c5.2-1.5,7.8,4.8,8.1,8.8
				c-0.1,3.4-0.5,6.8-1,10.2c5.4-5.6,10.6-11.4,15.4-17.4c-1.4,0-5.6-3-6.4-3.8c-2-2-5.2-6.3-1.7-8.6c3.2-2,7.1,0.9,8.4,3.8
				c0.6,2.2,0.9,4.5,1.1,6.8c2-2.5,3.9-5,5.6-7.6c1.2-1.7,2.3-3.4,3.3-5.2c-0.3-0.2-0.5-0.4-0.7-0.7c-5.3-0.9-12-9-5.8-11.9
				c2.9-1.3,6.1,1.4,7.6,3.7c0.5,1.5,0.9,3.1,1.2,4.7c2.9-5.9,5.2-12.1,6.9-18.4c-0.5-0.1-0.9-0.5-0.9-1.1c-2.6-1.4-4.6-2.6-6.4-5.4
				c-1.1-1.7-3.1-5.7,0.2-6.6c4.2-1.2,6.9,5.2,7.2,8.3c0,0.4,0,1.4,0,2.4c0.1,0,0.3,0,0.4,0c1-3.9,1.8-7.9,2.4-11.9
				c-2.3-0.7-2.7-12.8-1.2-14.5c3.4-3.8,5.9,1.7,5.7,4.6c-0.4,3.4-1.6,6.6-3.7,9.4c-0.2,0.3-0.1,0.3-0.2-0.1c0,0.2-0.1,0.3-0.2,0.5
				c0.2,1.8,0.2,3.5,0.2,5.3c-0.3,4.6-0.8,9.2-1.6,13.8c-0.2,1.1-0.4,2.2-0.7,3.3c1.6-1.3,3.4-2.5,5.4-3.4
				C229.8-44.4,233.8-45.7,236.3-43.7L236.3-43.7z M107.9,115.9c0.1,1.4,0.5,2.7,1.2,3.9C108.6,118.6,108.2,117.3,107.9,115.9z"/>
			<g id="Plant-Left" transform="translate(22 79)" class="st16">
				<path id="Leaf" class="st17" d="M178.2,5.4c4.2-6,12-21.2,17.9-23.4c3.8-1.4,2.7,12.9,2.7,15.6c0,10.5-0.7,21-2.1,31.4
					c-2.3,18.8-9.7,35.6-20,51.6c-5.3,8.2-11.4,16.6-20,21.7c-3.9,2.4-8.7,2.8-12.6,4.8c-4.5,2.4-2.1,0.5-4.1,5.2
					c-2.8,6.5-3.7,15-5,22c-6,32.1-20.6,201.6-18.1,234.2c0.2,2.9-3.8,3.6-4,0.1c-1.1-18.7,8.2-148.3,12.9-190.7
					c4.7-42.4,9.4-79.8,14.1-94.5c5.7-17.8,16.1-39.2,24.8-55.8C168.8,19.9,173.3,12.5,178.2,5.4z"/>
				<path id="Leaf-2" class="st18" d="M209.4,213.2c10.9-8,22.8,7.1,12.9,15.2c-5.5,4.4-11.2,2.9-14.4-0.8c-2.1,2.5-4,5.2-5.9,7.5
					c-5.7,6.9-11.1,13.9-16.3,21.1c-10.7,14.9-20,30.7-29.6,46.2c-9.5,15.3-18.9,30.6-27.5,46.3c-7.3,13.3-17,28.9-19.5,43.4
					c3.8-30.9,18.2-60.5,35.3-87.7c17-27,36.5-56.4,62.8-77.7c-3.1-4.1-2.2-10,2-13C209.2,213.4,209.3,213.3,209.4,213.2z"/>
				<path id="Leaf-3" class="st17" d="M1.9,138c6.1,1.2,16.1,15,21.2,20.3c6,6.3,11.5,12.9,16.6,19.9c11.1,15.1,20.9,31.1,29.3,47.8
					c13.7,27.1,24.7,55.5,32.6,84.8c4.8,18.3,8.1,36.9,9.9,55.6c0.4,3.5,4,30.7-1.3,31.4c-4.8,0.7-3.3-20.6-3.5-23.5
					c-2.6-32.7-10.4-64.4-21.3-95.2c-2.4-6.7-4.6-14.9-8.4-21c-2.7-4.3,0-2.8-4.8-4.5c-4.1-1.4-8.8-1.1-13-2.8
					c-9.2-3.8-16.5-11-22.9-18.4c-12.5-14.3-22.4-29.7-27.6-47.9c-3-10.1-5.3-20.4-7-30.8C1.3,151.1-2,137.2,1.9,138z"/>
				<path id="Leaf-4" class="st19" d="M26.1-92.4c23,40,42,83.9,54.2,128.4C87.7,62.9,92.9,90.6,98,118c8,42.5,15.5,85,17.7,128.3
					c2.2,43.5,6.4,93.7-7.8,135.6c7.1-42.5,0.3-87.8-0.9-130.6c-0.6-20.4-2.2-40.7-4.4-61c-2.1-19.7-5.6-39.3-8.8-58.9
					c-1.6-9.5-3.2-19-4.9-28.5c-0.5-2.8-0.7-11.3-2.5-13.2s-11-2.7-13.9-4.2c-5.9-3-11.3-6.8-16.2-11.3
					c-9.3-8.3-17.4-19.1-23.8-29.8C17.6,19.7,11.7-10.5,12-39.1c0.1-5.6,9-65.4,5.4-66.2c0.2-0.3,0.4-0.5,0.6-0.8
					C20.7-101.5,23.4-97,26.1-92.4z"/>
				<path id="Leaf-5" class="st19" d="M274.8,51.8c0.4-0.5,2.7-4.1,1.5-3.9c2.4-0.5-3.3,3.9,2.6,1.2c-2.8,2.7-1.2,6.1-1.1,9.7
					c-0.1,5.8-0.8,11.6-2,17.2c-1.7,9-4.4,17.7-8,26c-8.1,18.2-21.9,35.7-38.3,47c-8.1,5.6-16,7.5-25.2,10.1
					c-5.8,1.6-6.3,4.6-9.4,10.3c-6.4,11.8-12.8,23.5-18.4,35.7c-6.8,14.5-13.4,29.1-19.6,43.9C136,298.9,118.9,350.5,110,403.9
					c-0.2-31.5,7.1-63.9,16.3-93.9c6.7-21.9,15.4-42.9,24.7-63.8c2.3-5.1,5.7-11.6,6.6-17.1c0.7-3.9-1.4-7.7-2.3-11.8
					c-3.7-16-3.4-34-0.2-50.1c3.5-17.8,13.8-26,31.1-28.5c6.3-0.9,14.4-0.6,20.2-3.3c6.3-2.9,8.9-12.6,12.5-18.8
					c9.6-16.8,21.1-32.5,34.3-46.7c3.6-3.9,7.6-7.5,11.7-10.8C267.5,57,273.1,54.4,274.8,51.8z"/>
				<path id="Base" class="st18" d="M80.8,369.9h61.4c2.8,0,5,2.2,5,5c0,0.2,0,0.5-0.1,0.7l-4.7,32.2c-1.4,9.8-9.9,17.1-19.8,17.1
					h-22.2c-9.9,0-18.3-7.3-19.8-17.1l-4.7-32.2c-0.4-2.7,1.5-5.3,4.2-5.7l0,0C80.3,369.9,80.5,369.9,80.8,369.9z"/>
			</g>
		</g>
	</g>
	<g id="humaaans_sitting-8" transform="translate(552.633 450.09)">
		<g id="A-Human_Sitting" transform="translate(470.545 573.91) rotate(180)">
			<g id="Head_Front_Short-2" transform="translate(124.021 400.32)">
				<g id="Head" transform="translate(6.28)">
					<path id="Path_19" class="st20" d="M13,166.5C5.7,175,0.8,185.4,1.7,197.1c2.4,33.6,49.1,26.2,58.2,9.2s8-60-3.7-63
						c-4.7-1.2-14.7,1.8-24.8,7.9l6.4-45.1H0L13,166.5z"/>
				</g>
				<path id="Hair" class="st21" d="M16.4,159c-4.7,21-18.2,35.4-16.1,44.8c1.4,6.3,5,10.2,11,11.7c3.1,12.4,13,17.7,29.7,15.9
					c25.1-2.8,40.4-13.2,33.8-36.2c-6.1,0-13.4,2.2-23.6-1.6c-3.2-1.2-5.5-4.9-6.9-11.1h-4.6c-4.5,7.4-8.8,10.1-13.2,8.1
					c-4.3-2-5.3-6.7-3-14.3L21.2,159H16.4z"/>
			</g>
			<g id="Bottom_Sitting_Baggy-Pants" transform="translate(0 0)">
				<g id="Objects_Seat_Cube-2" transform="translate(0 9.419)">
					<path id="Seat" class="st14" d="M25.1,300.7h180.5c13.9,0,25.1-11.2,25.1-25.1V131.2c0-13.9-11.2-25.1-25.1-25.1c0,0,0,0,0,0
						H25.1C11.2,106.1,0,117.3,0,131.2v144.4C0,289.5,11.2,300.7,25.1,300.7z M50.2,256.8c-3.5,0-6.3-2.8-6.3-6.3v-94.2
						c0-3.5,2.8-6.3,6.3-6.3h130.3c3.5,0,6.3,2.8,6.3,6.3v94.2c0,3.5-2.8,6.3-6.3,6.3L50.2,256.8z"/>
				</g>
				<path id="LegLower" class="st22" d="M386.4,123.3c-31,37.8-51.9,65.8-62.8,84.1c-18.7,31.2-34,59-38.9,69.7
					c-11.5,25.3,26.5,37.2,35.2,25.4c13-17.9,40.9-74.1,83.6-168.7L386.4,123.3z"/>
				<path id="LegLower-2" class="st23" d="M323,134.3l-57.6,145c-12.3,26.4,47.2,43.8,56.2,31.5c20.6-27.9,69.4-138.1,75.5-146.4
					L323,134.3z"/>
				<g id="Lower-Leg" transform="matrix(0.777, -0.629, 0.629, 0.777, 162.129, 52.612)">
					<path id="LegLower-3" class="st20" d="M-63.9,90.8c-1.6,19.8-4.5,88.3-1.6,120c0.8,9.1,1.7,17.9,2.6,26.2
						c2.7,24.6,48.2,23.8,44.6,0.4c-9-58.1-24.9-139.5-26-146.6C-45.9,81-62.9,78.4-63.9,90.8z"/>
				</g>
				<g id="Accessories_Shoe_Flat-Sneaker" transform="matrix(0.866, -0.5, 0.5, 0.866, 158.483, 46.201)">
					<path id="shoe" class="st24" d="M-50.4,114.8c-1.8-4.7-2.6-8.2-2.6-10.5c0.1-4.2,0.6-8.3,1.4-12.4h88.5c2.3,7.6,1,11.7-4,12.3
						c-5,0.6-9.1,1.2-12.4,1.6l-41.2,18.3c-0.8,0.4-1.7,0-2.1-0.8l0,0l-2.6-6.4c-4.6-2.1-8.3-3.2-11.2-3.2c-2.3,0-5.6,0.9-9.7,2.8
						l0,0c-1.6,0.7-3.4,0-4.2-1.5c0,0,0,0,0,0C-50.4,114.9-50.4,114.9-50.4,114.8z"/>
				</g>
				<g id="Accessories_Shoe_Flat-Sneaker-2" transform="translate(370.492)">
					<path id="shoe-2" class="st24" d="M2.6,129c-1.8-4.7-2.6-8.2-2.6-10.5c0.1-4.2,0.6-8.3,1.4-12.4H90c2.3,7.6,1,11.7-4,12.3
						c-5,0.6-9.1,1.2-12.4,1.6l-41.2,18.3c-0.8,0.4-1.7,0-2.1-0.8l0,0l-2.6-6.4c-4.6-2.1-8.3-3.2-11.2-3.2c-2.3,0-5.6,0.9-9.7,2.8
						l0,0c-1.6,0.7-3.4,0-4.2-1.5c0,0,0,0,0,0C2.7,129.1,2.7,129.1,2.6,129z"/>
				</g>
				<path id="Leg-and-Butt" class="st25" d="M244.7,272.1c-47.9,7.8-79.9,13.1-96.2,16c-46.4,8.2-59.9,33.1-51.9,87.5H182
					c11.3-3.3,58.5-23.4,141.7-60.5c15-7.4,12.2-29.3,9.4-36.5c-0.1-0.3-25.3-43.5-75.7-129.6l-69.9,44.5l57.2,73.4
					C246.3,269.9,246.3,271.6,244.7,272.1z"/>
			</g>
			<g id="Body_Hoodie" transform="translate(4.965 150.463)">
				<path id="Skin" class="st20" d="M245.9,245.7l50.1-36.8c13.6-3.7,24.9-8.2,34-13.7c2.2-2,4.8-5.9-4.2-5.2
					c-8.9,0.7-18.3,1-19.6-2s4.2-6.7,1.7-10.8c-1.7-2.7-9.5,4.1-23.5,20.6l-49.6,20.6L245.9,245.7z M53.6,244.4l32.8-0.1
					c-20.3-65.4-31.2-100.1-32.8-104.1c-3.6-9,4.1-22.7,7.3-30.1c-10.7-4.8-9.6,13-23.1,6.7c-12.3-5.7-21.7-16.1-35.9-7.3
					c-1.8,1.1-3.7,5.1,1,8.3c11.6,7.9,28.2,21.8,30.4,26.3C36.4,150.4,43.2,183.8,53.6,244.4z"/>
				<path id="Coat-Back" class="st26" d="M146.8,382.1l13.6,2.3c50.4-43.5,71.1-127.1,132.8-171.4l-14.9-18.4
					C171.2,207.9,144.7,309.9,146.8,382.1z"/>
				<path id="Shirt" class="st13" d="M87.7,211.5h120.1c5.5,0,4.5,7.9,3.7,11.9c-9.2,46.2-44.9,95.9-44.9,161.6l-34.6,5.4
					C103.2,344.4,93.3,287.6,87.7,211.5z"/>
				<path id="Coat-Front" class="st27" d="M88.6,345.2c-5,1.4-9,4.8-12,10.1c-12.7,22.9-8.1,35.4,5.4,39.6s25.6-4.4,47.2-4.4
					c1.1,0,2.2-0.1,3.2-0.2l10.8-0.6c31.1-105.5,39.7-175.8,25.7-211.1H74.6c-4.7-11.3-10.1-22.3-16.1-33H32.7
					C30.3,224,48.9,290.5,88.6,345.2z"/>
				<path id="Shade-2" class="st28" d="M95.1,232.7c3-24.9,7.8-42.9,14.5-54.2H74.6C81.1,193.8,87.9,211.8,95.1,232.7z"/>
			</g>
		</g>
	</g>
	<path id="Path_21" class="st29" d="M519.3,490.1c1.1,0.4,3.8,1.9,3.8,1.9l0,0l31.2,96.1c0.5,1.6-0.4,3.3-1.9,3.8
		c-1.6,0.5-3.3-0.4-3.8-1.9l-31.8-99.2C516.3,489.1,515.5,488.6,519.3,490.1z"/>
	<path id="Path_20" class="st30" d="M548.2,587.9c1.6-1.7,3.3-3.2,5.2-4.5l0,0h108l0,0c0,0,6.6,6.4,7.2,8c0.6,1.6-4.4,1-7.2,1h-108
		C550.5,592.4,543.8,592.9,548.2,587.9z"/>
	<path id="Rectangle_9" class="st31" d="M559.6,586.9h5c0.6,0,1,0.4,1,1l0,0c0,0.6-0.4,1-1,1h-5c-0.6,0-1-0.4-1-1l0,0
		C558.6,587.4,559.1,586.9,559.6,586.9z"/>
</g>
</svg>
