<svg xmlns="http://www.w3.org/2000/svg" width="24.263" height="24.262" viewBox="0 0 24.263 24.262">
  <path id="Icon_awesome-linkedin-in" data-name="Icon awesome-linkedin-in" d="M5.431,24.263H.4V8.064h5.03ZM2.913,5.855A2.927,2.927,0,1,1,5.826,2.914,2.938,2.938,0,0,1,2.913,5.855ZM24.257,24.263H19.238V16.377c0-1.879-.038-4.289-2.615-4.289-2.615,0-3.016,2.042-3.016,4.154v8.021H8.582V8.064h4.824v2.21h.07a5.285,5.285,0,0,1,4.759-2.616c5.091,0,6.027,3.352,6.027,7.707v8.9Z" transform="translate(0 -0.001)" fill="#707070"/>
</svg>
