<svg xmlns="http://www.w3.org/2000/svg" width="24.26" height="24.263" viewBox="0 0 24.26 24.263">
  <path id="Icon_awesome-trello" data-name="Icon awesome-trello" d="M21.245,2.25H3.038A3.036,3.036,0,0,0,0,5.283c-.005,0,0-.217,0,18.2a3.035,3.035,0,0,0,3.033,3.033H21.24a3.035,3.035,0,0,0,3.017-3.033V5.283A3.027,3.027,0,0,0,21.245,2.25ZM10.668,20.626a1.457,1.457,0,0,1-1.457,1.441H4.733A1.452,1.452,0,0,1,3.27,20.626V6.859A1.457,1.457,0,0,1,4.727,5.4h4.49a1.457,1.457,0,0,1,1.457,1.457V20.626ZM21.126,14.56a1.457,1.457,0,0,1-1.457,1.457H15.282a1.457,1.457,0,0,1-1.457-1.457v-7.7a1.456,1.456,0,0,1,1.451-1.457h4.392a1.457,1.457,0,0,1,1.457,1.457v7.7Z" transform="translate(0.003 -2.25)" fill="#707070"/>
</svg>
